<mxfile host="65bd71144e">
    <diagram id="wsbk6R9KETkTLcxFzrdH" name="Page-1">
        <mxGraphModel dx="1006" dy="790" grid="1" gridSize="10" guides="1" tooltips="1" connect="1" arrows="1" fold="1" page="1" pageScale="1" pageWidth="827" pageHeight="1169" math="0" shadow="0">
            <root>
                <mxCell id="0"/>
                <mxCell id="1" parent="0"/>
                <mxCell id="2" value="&lt;font style=&quot;font-size: 14px&quot; color=&quot;#ff9933&quot;&gt;IdentityServer&lt;/font&gt;&lt;br&gt;https://localhost:5000" style="rounded=0;whiteSpace=wrap;html=1;" vertex="1" parent="1">
                    <mxGeometry x="316" y="20" width="196" height="80" as="geometry"/>
                </mxCell>
                <mxCell id="4" style="edgeStyle=none;html=1;entryX=0;entryY=0.5;entryDx=0;entryDy=0;" edge="1" parent="1" source="3" target="2">
                    <mxGeometry relative="1" as="geometry"/>
                </mxCell>
                <mxCell id="3" value="&lt;font style=&quot;font-size: 14px&quot; color=&quot;#ff9933&quot;&gt;ApiServer&lt;/font&gt;&lt;br&gt;https://localhost:5001" style="rounded=0;whiteSpace=wrap;html=1;" vertex="1" parent="1">
                    <mxGeometry x="40" y="280" width="196" height="80" as="geometry"/>
                </mxCell>
            </root>
        </mxGraphModel>
    </diagram>
</mxfile>